<?xml version="1.0" standalone="no"?>
<!DOCTYPE svg PUBLIC "-//W3C//DTD SVG 20010904//EN"
 "http://www.w3.org/TR/2001/REC-SVG-20010904/DTD/svg10.dtd">
<svg version="1.0" xmlns="http://www.w3.org/2000/svg"
 width="330.000000pt" height="250.000000pt" viewBox="0 0 330.000000 250.000000"
 preserveAspectRatio="xMidYMid meet">

<g transform="translate(0.000000,250.000000) scale(0.100000,-0.100000)"
fill="#000000" stroke="none">
<path d="M1750 2180 c-13 -9 -13 -12 3 -21 9 -5 17 -19 17 -29 0 -32 17 -23
24 12 8 41 -13 59 -44 38z"/>
<path d="M1730 1941 c-30 -33 -58 -57 -62 -55 -5 3 -8 -7 -7 -23 0 -16 3 -22
6 -13 3 8 29 39 56 67 45 46 74 83 65 83 -2 0 -28 -27 -58 -59z"/>
<path d="M1403 1970 c-122 -43 -250 -136 -307 -220 -14 -22 -19 -23 -37 -12
-18 12 -20 11 -17 -5 2 -10 11 -17 21 -15 21 4 22 9 -13 -73 -16 -39 -30 -80
-30 -93 0 -15 -4 -21 -11 -16 -8 4 -10 33 -7 85 4 70 3 76 -9 59 -28 -39 -72
-148 -93 -226 -21 -82 -28 -200 -10 -189 6 4 8 11 5 16 -4 5 -1 9 4 9 17 0 59
71 76 126 26 88 27 88 133 44 63 -27 92 -35 92 -26 0 28 73 157 115 204 74 82
163 131 280 152 l50 9 -50 -4 c-154 -12 -326 -144 -381 -292 -9 -27 -20 -51
-24 -56 -8 -9 -80 20 -80 33 0 24 46 121 86 182 50 75 114 133 189 171 63 31
149 57 192 57 l33 0 -32 29 c-28 25 -34 27 -39 13 -5 -13 -11 -9 -30 21 -27
42 -34 43 -106 17z"/>
<path d="M1769 1947 l-37 -43 27 -11 c14 -6 44 -17 66 -23 128 -40 254 -151
316 -280 56 -116 56 -115 9 -134 -22 -9 -42 -16 -44 -16 -1 0 -8 17 -14 38
-26 85 -133 216 -211 256 -46 24 -37 14 20 -23 76 -50 162 -172 193 -274 4
-14 9 -15 23 -7 24 14 166 71 168 68 11 -13 34 -69 39 -95 4 -17 14 -37 22
-43 7 -7 12 -15 9 -19 -2 -4 9 -22 24 -39 16 -17 32 -37 35 -44 16 -34 -6 155
-25 217 -24 79 -69 180 -92 210 -15 19 -16 17 -6 -19 11 -39 4 -146 -9 -146
-4 0 -8 15 -9 33 -1 19 -15 64 -32 101 -18 40 -25 66 -18 65 24 -3 34 1 34 15
0 12 -5 13 -19 5 -16 -9 -29 0 -85 60 -40 45 -90 85 -131 108 -65 36 -181 83
-205 83 -7 -1 -28 -20 -48 -43z"/>
<path d="M1738 1880 c12 -5 22 -15 22 -21 0 -7 3 -9 6 -6 10 10 -16 37 -35 36
-11 0 -9 -3 7 -9z"/>
<path d="M1671 1813 c-1 -24 14 -39 24 -23 3 5 2 10 -4 10 -5 0 -12 8 -14 18
-4 13 -5 12 -6 -5z"/>
<path d="M1270 1543 c0 -4 10 -20 23 -34 27 -31 44 -56 58 -89 l11 -25 9 23
c4 12 12 22 17 22 5 0 9 7 9 15 0 8 -2 13 -5 11 -2 -3 -17 8 -34 22 -40 36
-88 66 -88 55z"/>
<path d="M1935 1431 c-3 -5 4 -13 16 -16 23 -8 34 -1 24 14 -8 13 -32 14 -40
2z"/>
<path d="M2320 1350 c0 -7 -13 -32 -30 -56 -16 -24 -25 -44 -20 -44 5 0 18 16
28 36 22 43 28 37 38 -34 6 -49 5 -52 -15 -52 -16 0 -21 6 -22 28 0 15 -3 21
-6 14 -2 -6 -8 -10 -13 -7 -4 3 -6 -4 -3 -15 4 -17 0 -20 -25 -20 -29 0 -30 2
-42 65 -7 36 -16 67 -20 70 -4 2 -1 -21 6 -53 18 -76 18 -80 -8 -85 -13 -2 48
-4 135 -5 86 -2 167 -6 180 -11 39 -15 51 -40 58 -120 l6 -76 1 61 c3 118 -29
154 -136 154 l-60 0 -17 75 c-9 41 -20 77 -26 80 -5 4 -9 1 -9 -5z"/>
<path d="M951 1318 c-6 -18 -13 -52 -17 -75 l-7 -43 -59 0 c-113 0 -139 -35
-137 -185 2 -142 17 -149 18 -9 1 186 -9 177 213 185 112 3 140 6 80 7 l-93 2
7 38 c4 20 10 48 14 61 6 24 6 24 28 -10 12 -20 30 -44 42 -54 20 -18 20 -18
20 6 0 17 -3 20 -9 10 -6 -10 -17 -1 -42 35 -19 27 -33 52 -31 57 1 4 -2 7 -7
7 -5 0 -14 -15 -20 -32z"/>
<path d="M2243 1295 c0 -22 2 -30 4 -17 2 12 2 30 0 40 -3 9 -5 -1 -4 -23z"/>
<path d="M1794 1265 c-10 -8 -14 -14 -9 -14 6 0 19 6 29 14 11 8 15 15 10 15
-6 0 -19 -7 -30 -15z"/>
<path d="M2153 1235 c0 -22 2 -30 4 -17 2 12 2 30 0 40 -3 9 -5 -1 -4 -23z"/>
<path d="M2240 1229 c0 -5 5 -7 10 -4 6 3 10 8 10 11 0 2 -4 4 -10 4 -5 0 -10
-5 -10 -11z"/>
<path d="M863 1153 c26 -2 68 -2 95 0 26 2 4 3 -48 3 -52 0 -74 -1 -47 -3z"/>
<path d="M2343 1153 c20 -2 54 -2 75 0 20 2 3 4 -38 4 -41 0 -58 -2 -37 -4z"/>
<path d="M812 938 l3 -183 78 -3 c42 -2 77 -1 77 1 0 9 -82 223 -91 237 -11
19 -7 -187 4 -211 7 -14 3 -16 -18 -11 -19 3 -23 8 -16 15 16 16 15 279 -1
295 -9 9 -5 12 19 12 29 0 33 -4 53 -57 37 -103 53 -143 54 -143 8 0 -9 187
-18 192 -6 4 5 8 23 8 27 0 32 -3 23 -12 -8 -8 -12 -61 -12 -171 l0 -159 58 5
c31 2 85 16 119 31 100 43 230 66 408 73 234 9 443 -21 584 -83 34 -15 71 -24
100 -23 39 1 41 2 16 8 -31 6 -42 27 -65 119 -15 60 -30 52 -30 -18 0 -33 4
-60 10 -60 6 0 10 -4 10 -9 0 -4 -37 3 -83 17 -75 23 -83 28 -79 48 6 33 -15
66 -41 62 -23 -3 -43 -54 -24 -62 7 -2 0 -5 -15 -5 -16 -1 -28 4 -28 9 0 6 4
10 9 10 5 0 21 50 36 110 15 61 31 113 36 115 13 9 24 -22 54 -145 26 -105 36
-129 58 -130 4 0 7 58 7 129 0 94 -3 131 -12 134 -7 3 15 6 48 6 82 1 109 -19
109 -82 0 -28 -6 -52 -17 -64 -16 -18 -16 -23 3 -88 21 -69 34 -94 44 -84 3 3
18 77 35 164 16 87 32 160 35 163 11 11 18 -11 46 -145 16 -76 33 -148 38
-159 8 -19 6 -23 -21 -28 -45 -9 -52 -8 -41 7 6 6 8 29 6 50 -5 33 -8 37 -33
37 -25 0 -29 -4 -35 -42 -5 -28 -4 -43 4 -46 6 -2 9 -8 5 -13 -3 -5 27 -9 70
-9 l76 0 0 185 0 185 -840 0 -840 0 2 -182z m558 118 l-1 -31 -15 28 c-11 20
-22 27 -37 25 -38 -5 -32 -39 18 -88 32 -32 45 -52 45 -73 0 -54 -83 -100
-118 -65 -32 32 6 96 48 83 23 -7 24 -35 2 -43 -7 -2 -11 2 -10 10 2 7 -4 13
-12 13 -23 0 -20 -59 3 -63 21 -4 57 24 57 45 0 8 -19 31 -41 51 -49 44 -60
67 -47 104 10 29 48 47 85 40 18 -3 23 -11 23 -36z m151 -61 c18 -58 37 -105
43 -106 13 -1 -33 -17 -54 -18 -11 -1 -15 9 -15 32 0 27 -4 32 -27 35 -29 4
-44 -22 -33 -58 5 -17 2 -20 -21 -20 -22 0 -24 3 -15 14 7 8 23 56 37 108 14
51 27 99 29 106 11 30 26 5 56 -93z m-421 -34 c0 -104 3 -131 16 -141 12 -11
18 -10 32 4 14 14 17 34 14 134 -2 76 -7 119 -15 124 -7 4 4 8 26 8 l37 0 0
-123 c0 -82 4 -127 12 -135 12 -12 10 -13 -43 -17 -9 0 -23 -6 -30 -12 -27
-21 -56 -24 -73 -8 -13 13 -16 40 -16 145 0 112 -2 130 -17 139 -15 8 -11 10
20 11 l37 0 0 -129z m574 67 l35 -63 1 57 c0 36 -5 58 -12 61 -7 3 3 5 22 5
19 0 29 -2 23 -5 -9 -3 -13 -34 -13 -104 0 -73 -3 -99 -12 -99 -7 0 -33 35
-58 78 l-45 77 -3 -63 c-2 -38 2 -69 9 -78 9 -11 6 -14 -17 -14 -22 0 -25 3
-16 12 7 7 12 43 12 93 0 50 -5 86 -12 93 -9 9 -5 12 19 12 28 0 35 -7 67 -62z
m246 30 c0 -33 0 -33 -13 -9 -6 14 -18 26 -24 29 -10 3 -13 -21 -13 -95 0 -65
4 -104 13 -112 10 -11 9 -13 -6 -7 -10 3 -33 6 -50 7 -18 0 -26 3 -19 6 14 6
18 203 3 203 -5 0 -16 -10 -24 -22 l-16 -23 0 28 -1 27 75 0 75 0 0 -32z"/>
<path d="M1457 1001 c-10 -48 -9 -51 13 -51 23 0 23 2 6 50 l-13 34 -6 -33z"/>
<path d="M2180 1005 c0 -76 9 -92 38 -63 18 18 15 103 -4 122 -28 28 -34 17
-34 -59z"/>
<path d="M1992 980 c-12 -50 -11 -53 15 -48 18 3 18 7 8 48 l-11 45 -12 -45z"/>
<path d="M2361 975 c-1 -11 -4 -37 -7 -57 -6 -34 -4 -38 15 -38 20 0 21 4 15
38 -4 20 -10 46 -15 57 l-8 20 0 -20z"/>
<path d="M1768 783 c12 -2 32 -2 45 0 12 2 2 4 -23 4 -25 0 -35 -2 -22 -4z"/>
<path d="M1910 765 c100 -17 152 -32 216 -61 59 -27 79 -31 49 -10 -52 35
-245 88 -313 85 -15 -1 7 -7 48 -14z"/>
<path d="M2067 645 c-15 -30 -25 -55 -22 -55 7 0 57 101 53 106 -2 2 -16 -21
-31 -51z"/>
<path d="M2238 672 c12 -2 22 -6 22 -9 0 -10 -61 -106 -97 -153 l-35 -45 38
40 c20 22 54 67 76 100 27 42 47 62 66 66 16 3 2 6 -33 5 -33 0 -50 -2 -37 -4z"/>
<path d="M1020 662 c0 -13 95 -145 116 -162 10 -8 7 -1 -8 17 -14 18 -43 59
-63 93 -35 58 -45 69 -45 52z"/>
<path d="M2170 639 c-8 -13 -6 -17 6 -15 22 3 38 33 18 33 -8 0 -19 -8 -24
-18z"/>
<path d="M2100 620 c-6 -11 -8 -20 -6 -20 3 0 10 9 16 20 6 11 8 20 6 20 -3 0
-10 -9 -16 -20z"/>
<path d="M2137 591 c-10 -14 -10 -14 4 -4 9 7 18 10 21 7 3 -3 8 -1 12 4 9 16
-24 9 -37 -7z"/>
<path d="M1400 576 c0 -31 6 -34 13 -6 3 11 1 23 -4 26 -5 3 -9 -6 -9 -20z"/>
<path d="M1880 575 c-14 -38 6 -75 41 -75 15 0 30 4 33 9 8 12 -23 23 -45 16
-15 -5 -17 -1 -12 35 6 45 -3 53 -17 15z"/>
<path d="M1335 570 c18 -20 45 -27 45 -12 0 15 -24 32 -44 32 -18 0 -19 -1 -1
-20z"/>
<path d="M1943 580 c-27 -11 -30 -30 -5 -30 19 0 42 18 42 32 0 10 -9 9 -37
-2z"/>
<path d="M2145 570 c-4 -6 -10 -8 -14 -5 -5 2 -19 -8 -32 -23 l-24 -27 26 23
c14 12 28 20 31 17 3 -3 11 1 18 10 7 8 10 15 7 15 -3 0 -9 -5 -12 -10z"/>
<path d="M1847 554 c-3 -3 -3 -13 0 -22 4 -10 2 -13 -5 -8 -8 5 -12 -1 -12
-16 1 -22 1 -22 15 -4 19 26 21 69 2 50z"/>
<path d="M2049 543 c-13 -16 -12 -17 4 -4 16 13 21 21 13 21 -2 0 -10 -8 -17
-17z"/>
<path d="M1350 520 c-8 -5 -10 -10 -5 -10 6 0 17 5 25 10 8 5 11 10 5 10 -5 0
-17 -5 -25 -10z"/>
<path d="M2075 488 l-40 -43 43 40 c39 36 47 45 39 45 -2 0 -21 -19 -42 -42z"/>
<path d="M1801 504 c0 -11 3 -14 6 -6 3 7 2 16 -1 19 -3 4 -6 -2 -5 -13z"/>
<path d="M1974 498 l-19 -23 23 19 c21 18 27 26 19 26 -2 0 -12 -10 -23 -22z"/>
<path d="M2020 465 c-13 -14 -20 -25 -16 -25 5 0 2 -8 -5 -17 -13 -16 -12 -17
4 -4 9 8 15 16 12 19 -3 3 5 16 17 29 12 13 19 23 16 23 -2 0 -15 -11 -28 -25z"/>
<path d="M1780 470 c-9 -6 -10 -10 -3 -10 6 0 15 5 18 10 8 12 4 12 -15 0z"/>
<path d="M1840 471 c0 -5 8 -11 18 -13 25 -6 53 2 47 13 -8 12 -65 12 -65 0z"/>
<path d="M1790 435 c7 -8 24 -15 37 -15 22 0 24 2 13 15 -7 8 -24 15 -37 15
-22 0 -24 -2 -13 -15z"/>
<path d="M1966 425 c-28 -21 -31 -48 -4 -34 11 6 17 13 14 16 -3 4 -1 12 5 20
15 17 9 16 -15 -2z"/>
<path d="M1720 425 c0 -2 11 -12 25 -21 30 -19 58 -8 30 13 -18 12 -55 18 -55
8z"/>
<path d="M1696 395 c-3 -9 0 -15 9 -15 9 0 12 6 9 15 -4 8 -7 15 -9 15 -2 0
-5 -7 -9 -15z"/>
<path d="M1900 385 c-96 -56 -286 -74 -400 -39 -30 9 -65 16 -77 16 -13 0 -20
4 -17 9 3 5 -3 6 -13 2 -24 -10 39 -37 136 -59 108 -24 220 -15 333 28 15 6
25 15 21 21 -4 6 0 8 11 4 11 -5 15 -3 10 5 -5 7 -2 9 8 6 9 -4 15 0 15 8 0 8
-1 14 -1 14 -1 -1 -12 -7 -26 -15z"/>
</g>
</svg>
